<?xml version="1.0" encoding="UTF-8" standalone="no"?>
<!DOCTYPE svg PUBLIC "-//W3C//DTD SVG 1.1//EN"
 "http://www.w3.org/Graphics/SVG/1.1/DTD/svg11.dtd">
<!-- Generated by graphviz version 13.1.0 (20250701.0955)
 -->
<!-- Title: example/driver_mifare_classic_basic.c Pages: 1 -->
<svg width="186pt" height="288pt"
 viewBox="0.00 0.00 186.00 288.00" xmlns="http://www.w3.org/2000/svg" xmlns:xlink="http://www.w3.org/1999/xlink">
<g id="graph0" class="graph" transform="scale(1 1) rotate(0) translate(4 284)">
<title>example/driver_mifare_classic_basic.c</title>
<!-- Node1 -->
<g id="Node000001" class="node">
<title>Node1</title>
<g id="a_Node000001"><a xlink:title="driver mifare classic basic source file">
<polygon fill="#999999" stroke="#666666" points="143.62,-280 31.63,-280 31.63,-248 143.62,-248 143.62,-280"/>
<text xml:space="preserve" text-anchor="start" x="39.62" y="-266.5" font-family="Helvetica,sans-Serif" font-size="10.00">example/driver_mifare</text>
<text xml:space="preserve" text-anchor="middle" x="87.62" y="-254.5" font-family="Helvetica,sans-Serif" font-size="10.00">_classic_basic.c</text>
</a>
</g>
</g>
<!-- Node2 -->
<g id="Node000002" class="node">
<title>Node2</title>
<g id="a_Node000002"><a xlink:href="driver__mifare__classic__basic_8h.html" target="_top" xlink:title="driver mifare classic basic header file">
<polygon fill="white" stroke="#666666" points="141.75,-212 33.5,-212 33.5,-180 141.75,-180 141.75,-212"/>
<text xml:space="preserve" text-anchor="start" x="41.5" y="-198.5" font-family="Helvetica,sans-Serif" font-size="10.00">driver_mifare_classic</text>
<text xml:space="preserve" text-anchor="middle" x="87.62" y="-186.5" font-family="Helvetica,sans-Serif" font-size="10.00">_basic.h</text>
</a>
</g>
</g>
<!-- Node1&#45;&gt;Node2 -->
<g id="edge1_Node000001_Node000002" class="edge">
<title>Node1&#45;&gt;Node2</title>
<g id="a_edge1_Node000001_Node000002"><a xlink:title=" ">
<path fill="none" stroke="#63b8ff" d="M87.62,-247.69C87.62,-240.53 87.62,-231.79 87.62,-223.59"/>
<polygon fill="#63b8ff" stroke="#63b8ff" points="91.13,-223.74 87.63,-213.74 84.13,-223.74 91.13,-223.74"/>
</a>
</g>
</g>
<!-- Node3 -->
<g id="Node000003" class="node">
<title>Node3</title>
<g id="a_Node000003"><a xlink:href="driver__mifare__classic__interface_8h.html" target="_top" xlink:title="driver mifare_classic interface header file">
<polygon fill="white" stroke="#666666" points="141.75,-144 33.5,-144 33.5,-112 141.75,-112 141.75,-144"/>
<text xml:space="preserve" text-anchor="start" x="41.5" y="-130.5" font-family="Helvetica,sans-Serif" font-size="10.00">driver_mifare_classic</text>
<text xml:space="preserve" text-anchor="middle" x="87.62" y="-118.5" font-family="Helvetica,sans-Serif" font-size="10.00">_interface.h</text>
</a>
</g>
</g>
<!-- Node2&#45;&gt;Node3 -->
<g id="edge2_Node000002_Node000003" class="edge">
<title>Node2&#45;&gt;Node3</title>
<g id="a_edge2_Node000002_Node000003"><a xlink:title=" ">
<path fill="none" stroke="#63b8ff" d="M87.62,-179.69C87.62,-172.53 87.62,-163.79 87.62,-155.59"/>
<polygon fill="#63b8ff" stroke="#63b8ff" points="91.13,-155.74 87.63,-145.74 84.13,-155.74 91.13,-155.74"/>
</a>
</g>
</g>
<!-- Node4 -->
<g id="Node000004" class="node">
<title>Node4</title>
<g id="a_Node000004"><a xlink:href="driver__mifare__classic_8h.html" target="_top" xlink:title="driver mifare classic header file">
<polygon fill="white" stroke="#666666" points="145.88,-76 29.38,-76 29.38,-56 145.88,-56 145.88,-76"/>
<text xml:space="preserve" text-anchor="middle" x="87.62" y="-62.5" font-family="Helvetica,sans-Serif" font-size="10.00">driver_mifare_classic.h</text>
</a>
</g>
</g>
<!-- Node3&#45;&gt;Node4 -->
<g id="edge3_Node000003_Node000004" class="edge">
<title>Node3&#45;&gt;Node4</title>
<g id="a_edge3_Node000003_Node000004"><a xlink:title=" ">
<path fill="none" stroke="#63b8ff" d="M87.62,-111.55C87.62,-104.34 87.62,-95.66 87.62,-87.88"/>
<polygon fill="#63b8ff" stroke="#63b8ff" points="91.13,-87.92 87.63,-77.92 84.13,-87.92 91.13,-87.92"/>
</a>
</g>
</g>
<!-- Node5 -->
<g id="Node000005" class="node">
<title>Node5</title>
<g id="a_Node000005"><a xlink:title=" ">
<polygon fill="#e0e0e0" stroke="#999999" points="45.25,-20 0,-20 0,0 45.25,0 45.25,-20"/>
<text xml:space="preserve" text-anchor="middle" x="22.62" y="-6.5" font-family="Helvetica,sans-Serif" font-size="10.00">stdio.h</text>
</a>
</g>
</g>
<!-- Node4&#45;&gt;Node5 -->
<g id="edge4_Node000004_Node000005" class="edge">
<title>Node4&#45;&gt;Node5</title>
<g id="a_edge4_Node000004_Node000005"><a xlink:title=" ">
<path fill="none" stroke="#63b8ff" d="M76.3,-55.59C66.98,-47.85 53.55,-36.69 42.45,-27.47"/>
<polygon fill="#63b8ff" stroke="#63b8ff" points="44.91,-24.96 34.98,-21.27 40.44,-30.35 44.91,-24.96"/>
</a>
</g>
</g>
<!-- Node6 -->
<g id="Node000006" class="node">
<title>Node6</title>
<g id="a_Node000006"><a xlink:title=" ">
<polygon fill="#e0e0e0" stroke="#999999" points="111.75,-20 63.5,-20 63.5,0 111.75,0 111.75,-20"/>
<text xml:space="preserve" text-anchor="middle" x="87.62" y="-6.5" font-family="Helvetica,sans-Serif" font-size="10.00">stdint.h</text>
</a>
</g>
</g>
<!-- Node4&#45;&gt;Node6 -->
<g id="edge5_Node000004_Node000006" class="edge">
<title>Node4&#45;&gt;Node6</title>
<g id="a_edge5_Node000004_Node000006"><a xlink:title=" ">
<path fill="none" stroke="#63b8ff" d="M87.62,-55.59C87.62,-49.01 87.62,-39.96 87.62,-31.73"/>
<polygon fill="#63b8ff" stroke="#63b8ff" points="91.13,-31.81 87.63,-21.81 84.13,-31.81 91.13,-31.81"/>
</a>
</g>
</g>
<!-- Node7 -->
<g id="Node000007" class="node">
<title>Node7</title>
<g id="a_Node000007"><a xlink:title=" ">
<polygon fill="#e0e0e0" stroke="#999999" points="177.75,-20 129.5,-20 129.5,0 177.75,0 177.75,-20"/>
<text xml:space="preserve" text-anchor="middle" x="153.62" y="-6.5" font-family="Helvetica,sans-Serif" font-size="10.00">string.h</text>
</a>
</g>
</g>
<!-- Node4&#45;&gt;Node7 -->
<g id="edge6_Node000004_Node000007" class="edge">
<title>Node4&#45;&gt;Node7</title>
<g id="a_edge6_Node000004_Node000007"><a xlink:title=" ">
<path fill="none" stroke="#63b8ff" d="M99.12,-55.59C108.59,-47.85 122.23,-36.69 133.5,-27.47"/>
<polygon fill="#63b8ff" stroke="#63b8ff" points="135.57,-30.3 141.09,-21.26 131.13,-24.88 135.57,-30.3"/>
</a>
</g>
</g>
</g>
</svg>
