<?xml version="1.0" encoding="UTF-8" standalone="no"?>
<!DOCTYPE svg PUBLIC "-//W3C//DTD SVG 1.1//EN"
 "http://www.w3.org/Graphics/SVG/1.1/DTD/svg11.dtd">
<!-- Generated by graphviz version 13.1.0 (20250701.0955)
 -->
<!-- Title: interface/driver_mifare_classic_interface.h Pages: 1 -->
<svg width="408pt" height="176pt"
 viewBox="0.00 0.00 408.00 176.00" xmlns="http://www.w3.org/2000/svg" xmlns:xlink="http://www.w3.org/1999/xlink">
<g id="graph0" class="graph" transform="scale(1 1) rotate(0) translate(4 172)">
<title>interface/driver_mifare_classic_interface.h</title>
<!-- Node1 -->
<g id="Node000001" class="node">
<title>Node1</title>
<g id="a_Node000001"><a xlink:title="driver mifare_classic interface header file">
<polygon fill="#999999" stroke="#666666" points="259.38,-168 146.62,-168 146.62,-136 259.38,-136 259.38,-168"/>
<text xml:space="preserve" text-anchor="start" x="154.62" y="-154.5" font-family="Helvetica,sans-Serif" font-size="10.00">interface/driver_mifare</text>
<text xml:space="preserve" text-anchor="middle" x="203" y="-142.5" font-family="Helvetica,sans-Serif" font-size="10.00">_classic_interface.h</text>
</a>
</g>
</g>
<!-- Node2 -->
<g id="Node000002" class="node">
<title>Node2</title>
<g id="a_Node000002"><a xlink:href="driver__mifare__classic__basic_8h.html" target="_top" xlink:title="driver mifare classic basic header file">
<polygon fill="white" stroke="#666666" points="112,-100 0,-100 0,-68 112,-68 112,-100"/>
<text xml:space="preserve" text-anchor="start" x="8" y="-86.5" font-family="Helvetica,sans-Serif" font-size="10.00">example/driver_mifare</text>
<text xml:space="preserve" text-anchor="middle" x="56" y="-74.5" font-family="Helvetica,sans-Serif" font-size="10.00">_classic_basic.h</text>
</a>
</g>
</g>
<!-- Node1&#45;&gt;Node2 -->
<g id="edge1_Node000001_Node000002" class="edge">
<title>Node1&#45;&gt;Node2</title>
<g id="a_edge1_Node000001_Node000002"><a xlink:title=" ">
<path fill="none" stroke="#63b8ff" d="M158.21,-130.89C136.46,-121.12 110.71,-109.56 90.5,-100.49"/>
<polygon fill="#63b8ff" stroke="#63b8ff" points="156.6,-134 167.15,-134.91 159.47,-127.62 156.6,-134"/>
</a>
</g>
</g>
<!-- Node4 -->
<g id="Node000004" class="node">
<title>Node4</title>
<g id="a_Node000004"><a xlink:href="driver__mifare__classic__interface__template_8c.html" target="_top" xlink:title="driver mifare_classic interface template source file">
<polygon fill="white" stroke="#666666" points="275.88,-100 130.12,-100 130.12,-68 275.88,-68 275.88,-100"/>
<text xml:space="preserve" text-anchor="start" x="138.12" y="-86.5" font-family="Helvetica,sans-Serif" font-size="10.00">interface/driver_mifare</text>
<text xml:space="preserve" text-anchor="middle" x="203" y="-74.5" font-family="Helvetica,sans-Serif" font-size="10.00">_classic_interface_template.c</text>
</a>
</g>
</g>
<!-- Node1&#45;&gt;Node4 -->
<g id="edge3_Node000001_Node000004" class="edge">
<title>Node1&#45;&gt;Node4</title>
<g id="a_edge3_Node000001_Node000004"><a xlink:title=" ">
<path fill="none" stroke="#63b8ff" d="M203,-124.31C203,-116.12 203,-107.38 203,-100.22"/>
<polygon fill="#63b8ff" stroke="#63b8ff" points="199.5,-124.18 203,-134.18 206.5,-124.18 199.5,-124.18"/>
</a>
</g>
</g>
<!-- Node5 -->
<g id="Node000005" class="node">
<title>Node5</title>
<g id="a_Node000005"><a xlink:href="driver__mifare__classic__card__test_8h.html" target="_top" xlink:title="driver mifare classic card test header file">
<polygon fill="white" stroke="#666666" points="400,-100 294,-100 294,-68 400,-68 400,-100"/>
<text xml:space="preserve" text-anchor="start" x="302" y="-86.5" font-family="Helvetica,sans-Serif" font-size="10.00">test/driver_mifare</text>
<text xml:space="preserve" text-anchor="middle" x="347" y="-74.5" font-family="Helvetica,sans-Serif" font-size="10.00">_classic_card_test.h</text>
</a>
</g>
</g>
<!-- Node1&#45;&gt;Node5 -->
<g id="edge4_Node000001_Node000005" class="edge">
<title>Node1&#45;&gt;Node5</title>
<g id="a_edge4_Node000001_Node000005"><a xlink:title=" ">
<path fill="none" stroke="#63b8ff" d="M247.2,-130.74C268.54,-120.96 293.72,-109.42 313.45,-100.38"/>
<polygon fill="#63b8ff" stroke="#63b8ff" points="245.77,-127.55 238.14,-134.9 248.69,-133.91 245.77,-127.55"/>
</a>
</g>
</g>
<!-- Node3 -->
<g id="Node000003" class="node">
<title>Node3</title>
<g id="a_Node000003"><a xlink:href="driver__mifare__classic__basic_8c.html" target="_top" xlink:title="driver mifare classic basic source file">
<polygon fill="white" stroke="#666666" points="112,-32 0,-32 0,0 112,0 112,-32"/>
<text xml:space="preserve" text-anchor="start" x="8" y="-18.5" font-family="Helvetica,sans-Serif" font-size="10.00">example/driver_mifare</text>
<text xml:space="preserve" text-anchor="middle" x="56" y="-6.5" font-family="Helvetica,sans-Serif" font-size="10.00">_classic_basic.c</text>
</a>
</g>
</g>
<!-- Node2&#45;&gt;Node3 -->
<g id="edge2_Node000002_Node000003" class="edge">
<title>Node2&#45;&gt;Node3</title>
<g id="a_edge2_Node000002_Node000003"><a xlink:title=" ">
<path fill="none" stroke="#63b8ff" d="M56,-56.31C56,-48.12 56,-39.38 56,-32.22"/>
<polygon fill="#63b8ff" stroke="#63b8ff" points="52.5,-56.18 56,-66.18 59.5,-56.18 52.5,-56.18"/>
</a>
</g>
</g>
<!-- Node6 -->
<g id="Node000006" class="node">
<title>Node6</title>
<g id="a_Node000006"><a xlink:href="driver__mifare__classic__card__test_8c.html" target="_top" xlink:title="driver mifare classic card test source file">
<polygon fill="white" stroke="#666666" points="400,-32 294,-32 294,0 400,0 400,-32"/>
<text xml:space="preserve" text-anchor="start" x="302" y="-18.5" font-family="Helvetica,sans-Serif" font-size="10.00">test/driver_mifare</text>
<text xml:space="preserve" text-anchor="middle" x="347" y="-6.5" font-family="Helvetica,sans-Serif" font-size="10.00">_classic_card_test.c</text>
</a>
</g>
</g>
<!-- Node5&#45;&gt;Node6 -->
<g id="edge5_Node000005_Node000006" class="edge">
<title>Node5&#45;&gt;Node6</title>
<g id="a_edge5_Node000005_Node000006"><a xlink:title=" ">
<path fill="none" stroke="#63b8ff" d="M347,-56.31C347,-48.12 347,-39.38 347,-32.22"/>
<polygon fill="#63b8ff" stroke="#63b8ff" points="343.5,-56.18 347,-66.18 350.5,-56.18 343.5,-56.18"/>
</a>
</g>
</g>
</g>
</svg>
