<?xml version="1.0" encoding="UTF-8" standalone="no"?>
<!DOCTYPE svg PUBLIC "-//W3C//DTD SVG 1.1//EN"
 "http://www.w3.org/Graphics/SVG/1.1/DTD/svg11.dtd">
<!-- Generated by graphviz version 13.1.0 (20250701.0955)
 -->
<!-- Title: mifare_classic_basic_set_permission Pages: 1 -->
<svg width="297pt" height="128pt"
 viewBox="0.00 0.00 297.00 128.00" xmlns="http://www.w3.org/2000/svg" xmlns:xlink="http://www.w3.org/1999/xlink">
<g id="graph0" class="graph" transform="scale(1 1) rotate(0) translate(4 124)">
<title>mifare_classic_basic_set_permission</title>
<!-- Node1 -->
<g id="Node000001" class="node">
<title>Node1</title>
<g id="a_Node000001"><a xlink:title="basic example set the sector permission">
<polygon fill="#999999" stroke="#666666" points="107.5,-82 0,-82 0,-50 107.5,-50 107.5,-82"/>
<text xml:space="preserve" text-anchor="start" x="8" y="-68.5" font-family="Helvetica,sans-Serif" font-size="10.00">mifare_classic_basic</text>
<text xml:space="preserve" text-anchor="middle" x="53.75" y="-56.5" font-family="Helvetica,sans-Serif" font-size="10.00">_set_permission</text>
</a>
</g>
</g>
<!-- Node2 -->
<g id="Node000002" class="node">
<title>Node2</title>
<g id="a_Node000002"><a xlink:href="group__mifare__classic__basic__driver.html#ga6b1b466609ca84cb3b8d0b126418f29b" target="_top" xlink:title="mifare authentication">
<polygon fill="white" stroke="#666666" points="288.5,-120 143.5,-120 143.5,-100 288.5,-100 288.5,-120"/>
<text xml:space="preserve" text-anchor="middle" x="216" y="-106.5" font-family="Helvetica,sans-Serif" font-size="10.00">mifare_classic_authentication</text>
</a>
</g>
</g>
<!-- Node1&#45;&gt;Node2 -->
<g id="edge1_Node000001_Node000002" class="edge">
<title>Node1&#45;&gt;Node2</title>
<g id="a_edge1_Node000001_Node000002"><a xlink:title=" ">
<path fill="none" stroke="#63b8ff" d="M107.74,-81.07C119.51,-84.37 131.92,-87.83 143.5,-91 150.25,-92.85 157.36,-94.77 164.38,-96.65"/>
<polygon fill="#63b8ff" stroke="#63b8ff" points="163.23,-99.97 173.8,-99.16 165.04,-93.2 163.23,-99.97"/>
</a>
</g>
</g>
<!-- Node3 -->
<g id="Node000003" class="node">
<title>Node3</title>
<g id="a_Node000003"><a xlink:href="group__mifare__classic__basic__driver.html#ga1026b82b3d014c0ddad08be0101d7eb7" target="_top" xlink:title="mifare get the sector&#39;s last block">
<polygon fill="white" stroke="#666666" points="271.62,-82 160.38,-82 160.38,-50 271.62,-50 271.62,-82"/>
<text xml:space="preserve" text-anchor="start" x="168.38" y="-68.5" font-family="Helvetica,sans-Serif" font-size="10.00">mifare_classic_sector</text>
<text xml:space="preserve" text-anchor="middle" x="216" y="-56.5" font-family="Helvetica,sans-Serif" font-size="10.00">_last_block</text>
</a>
</g>
</g>
<!-- Node1&#45;&gt;Node3 -->
<g id="edge2_Node000001_Node000003" class="edge">
<title>Node1&#45;&gt;Node3</title>
<g id="a_edge2_Node000001_Node000003"><a xlink:title=" ">
<path fill="none" stroke="#63b8ff" d="M107.67,-66C120.77,-66 134.98,-66 148.64,-66"/>
<polygon fill="#63b8ff" stroke="#63b8ff" points="148.43,-69.5 158.43,-66 148.43,-62.5 148.43,-69.5"/>
</a>
</g>
</g>
<!-- Node4 -->
<g id="Node000004" class="node">
<title>Node4</title>
<g id="a_Node000004"><a xlink:href="group__mifare__classic__basic__driver.html#ga3d62af08f43b811f76002465de535746" target="_top" xlink:title="mifare set the sector permission">
<polygon fill="white" stroke="#666666" points="266.38,-32 165.62,-32 165.62,0 266.38,0 266.38,-32"/>
<text xml:space="preserve" text-anchor="start" x="173.62" y="-18.5" font-family="Helvetica,sans-Serif" font-size="10.00">mifare_classic_set</text>
<text xml:space="preserve" text-anchor="middle" x="216" y="-6.5" font-family="Helvetica,sans-Serif" font-size="10.00">_sector_permission</text>
</a>
</g>
</g>
<!-- Node1&#45;&gt;Node4 -->
<g id="edge3_Node000001_Node000004" class="edge">
<title>Node1&#45;&gt;Node4</title>
<g id="a_edge3_Node000001_Node000004"><a xlink:title=" ">
<path fill="none" stroke="#63b8ff" d="M107.22,-49.63C122.35,-44.91 138.98,-39.72 154.55,-34.86"/>
<polygon fill="#63b8ff" stroke="#63b8ff" points="155.18,-38.33 163.69,-32.01 153.1,-31.65 155.18,-38.33"/>
</a>
</g>
</g>
</g>
</svg>
