<?xml version="1.0" encoding="UTF-8" standalone="no"?>
<!DOCTYPE svg PUBLIC "-//W3C//DTD SVG 1.1//EN"
 "http://www.w3.org/Graphics/SVG/1.1/DTD/svg11.dtd">
<!-- Generated by graphviz version 13.1.0 (20250701.0955)
 -->
<!-- Title: mifare_classic_basic_read Pages: 1 -->
<svg width="321pt" height="166pt"
 viewBox="0.00 0.00 321.00 166.00" xmlns="http://www.w3.org/2000/svg" xmlns:xlink="http://www.w3.org/1999/xlink">
<g id="graph0" class="graph" transform="scale(1 1) rotate(0) translate(4 162)">
<title>mifare_classic_basic_read</title>
<!-- Node1 -->
<g id="Node000001" class="node">
<title>Node1</title>
<g id="a_Node000001"><a xlink:title="basic example read">
<polygon fill="#999999" stroke="#666666" points="131.5,-92 0,-92 0,-72 131.5,-72 131.5,-92"/>
<text xml:space="preserve" text-anchor="middle" x="65.75" y="-78.5" font-family="Helvetica,sans-Serif" font-size="10.00">mifare_classic_basic_read</text>
</a>
</g>
</g>
<!-- Node2 -->
<g id="Node000002" class="node">
<title>Node2</title>
<g id="a_Node000002"><a xlink:href="group__mifare__classic__basic__driver.html#ga6b1b466609ca84cb3b8d0b126418f29b" target="_top" xlink:title="mifare authentication">
<polygon fill="white" stroke="#666666" points="312.5,-158 167.5,-158 167.5,-138 312.5,-138 312.5,-158"/>
<text xml:space="preserve" text-anchor="middle" x="240" y="-144.5" font-family="Helvetica,sans-Serif" font-size="10.00">mifare_classic_authentication</text>
</a>
</g>
</g>
<!-- Node1&#45;&gt;Node2 -->
<g id="edge1_Node000001_Node000002" class="edge">
<title>Node1&#45;&gt;Node2</title>
<g id="a_edge1_Node000001_Node000002"><a xlink:title=" ">
<path fill="none" stroke="#63b8ff" d="M86.38,-92.43C106.37,-102.74 138.47,-118.47 167.5,-129 172.8,-130.92 178.38,-132.74 183.99,-134.44"/>
<polygon fill="#63b8ff" stroke="#63b8ff" points="182.73,-137.72 193.3,-137.13 184.67,-130.99 182.73,-137.72"/>
</a>
</g>
</g>
<!-- Node3 -->
<g id="Node000003" class="node">
<title>Node3</title>
<g id="a_Node000003"><a xlink:href="group__mifare__classic__basic__driver.html#ga49fe2d9684134f603d7f293b8ce7feb4" target="_top" xlink:title="mifare block number to sector number">
<polygon fill="white" stroke="#666666" points="293.75,-120 186.25,-120 186.25,-88 293.75,-88 293.75,-120"/>
<text xml:space="preserve" text-anchor="start" x="194.25" y="-106.5" font-family="Helvetica,sans-Serif" font-size="10.00">mifare_classic_block</text>
<text xml:space="preserve" text-anchor="middle" x="240" y="-94.5" font-family="Helvetica,sans-Serif" font-size="10.00">_to_sector</text>
</a>
</g>
</g>
<!-- Node1&#45;&gt;Node3 -->
<g id="edge2_Node000001_Node000003" class="edge">
<title>Node1&#45;&gt;Node3</title>
<g id="a_edge2_Node000001_Node000003"><a xlink:title=" ">
<path fill="none" stroke="#63b8ff" d="M131.87,-90.32C145.93,-92.11 160.78,-94.01 174.8,-95.8"/>
<polygon fill="#63b8ff" stroke="#63b8ff" points="173.97,-99.22 184.34,-97.02 174.86,-92.28 173.97,-99.22"/>
</a>
</g>
</g>
<!-- Node4 -->
<g id="Node000004" class="node">
<title>Node4</title>
<g id="a_Node000004"><a xlink:href="group__mifare__classic__basic__driver.html#ga2d2fec205e26efdb4ff5c0c1cbba97eb" target="_top" xlink:title="mifare read">
<polygon fill="white" stroke="#666666" points="291.5,-70 188.5,-70 188.5,-50 291.5,-50 291.5,-70"/>
<text xml:space="preserve" text-anchor="middle" x="240" y="-56.5" font-family="Helvetica,sans-Serif" font-size="10.00">mifare_classic_read</text>
</a>
</g>
</g>
<!-- Node1&#45;&gt;Node4 -->
<g id="edge3_Node000001_Node000004" class="edge">
<title>Node1&#45;&gt;Node4</title>
<g id="a_edge3_Node000001_Node000004"><a xlink:title=" ">
<path fill="none" stroke="#63b8ff" d="M131.87,-73.68C146.53,-71.81 162.05,-69.83 176.6,-67.97"/>
<polygon fill="#63b8ff" stroke="#63b8ff" points="177.04,-71.44 186.52,-66.7 176.15,-64.5 177.04,-71.44"/>
</a>
</g>
</g>
<!-- Node5 -->
<g id="Node000005" class="node">
<title>Node5</title>
<g id="a_Node000005"><a xlink:href="group__mifare__classic__basic__driver.html#ga1026b82b3d014c0ddad08be0101d7eb7" target="_top" xlink:title="mifare get the sector&#39;s last block">
<polygon fill="white" stroke="#666666" points="295.62,-32 184.38,-32 184.38,0 295.62,0 295.62,-32"/>
<text xml:space="preserve" text-anchor="start" x="192.38" y="-18.5" font-family="Helvetica,sans-Serif" font-size="10.00">mifare_classic_sector</text>
<text xml:space="preserve" text-anchor="middle" x="240" y="-6.5" font-family="Helvetica,sans-Serif" font-size="10.00">_last_block</text>
</a>
</g>
</g>
<!-- Node1&#45;&gt;Node5 -->
<g id="edge4_Node000001_Node000005" class="edge">
<title>Node1&#45;&gt;Node5</title>
<g id="a_edge4_Node000001_Node000005"><a xlink:title=" ">
<path fill="none" stroke="#63b8ff" d="M91.46,-71.54C111.77,-63.04 141.36,-50.88 167.5,-41 171.6,-39.45 175.85,-37.88 180.14,-36.32"/>
<polygon fill="#63b8ff" stroke="#63b8ff" points="181.16,-39.67 189.38,-32.99 178.79,-33.08 181.16,-39.67"/>
</a>
</g>
</g>
</g>
</svg>
