<?xml version="1.0" encoding="UTF-8" standalone="no"?>
<!DOCTYPE svg PUBLIC "-//W3C//DTD SVG 1.1//EN"
 "http://www.w3.org/Graphics/SVG/1.1/DTD/svg11.dtd">
<!-- Generated by graphviz version 13.1.0 (20250701.0955)
 -->
<!-- Title: mifare_classic_basic_search Pages: 1 -->
<svg width="305pt" height="154pt"
 viewBox="0.00 0.00 305.00 154.00" xmlns="http://www.w3.org/2000/svg" xmlns:xlink="http://www.w3.org/1999/xlink">
<g id="graph0" class="graph" transform="scale(1 1) rotate(0) translate(4 150)">
<title>mifare_classic_basic_search</title>
<!-- Node1 -->
<g id="Node000001" class="node">
<title>Node1</title>
<g id="a_Node000001"><a xlink:title="basic example search">
<polygon fill="#999999" stroke="#666666" points="107.5,-86 0,-86 0,-54 107.5,-54 107.5,-86"/>
<text xml:space="preserve" text-anchor="start" x="8" y="-72.5" font-family="Helvetica,sans-Serif" font-size="10.00">mifare_classic_basic</text>
<text xml:space="preserve" text-anchor="middle" x="53.75" y="-60.5" font-family="Helvetica,sans-Serif" font-size="10.00">_search</text>
</a>
</g>
</g>
<!-- Node2 -->
<g id="Node000002" class="node">
<title>Node2</title>
<g id="a_Node000002"><a xlink:href="group__mifare__classic__basic__driver.html#gae1c68e049064f65fdc56e054a9ec3f88" target="_top" xlink:title="mifare anti collision cl1">
<polygon fill="white" stroke="#666666" points="296.75,-146 143.5,-146 143.5,-126 296.75,-126 296.75,-146"/>
<text xml:space="preserve" text-anchor="middle" x="220.12" y="-132.5" font-family="Helvetica,sans-Serif" font-size="10.00">mifare_classic_anticollision_cl1</text>
</a>
</g>
</g>
<!-- Node1&#45;&gt;Node2 -->
<g id="edge1_Node000001_Node000002" class="edge">
<title>Node1&#45;&gt;Node2</title>
<g id="a_edge1_Node000001_Node000002"><a xlink:title=" ">
<path fill="none" stroke="#63b8ff" d="M81.53,-86.37C98.74,-96.33 121.85,-108.69 143.5,-117 148.53,-118.93 153.82,-120.72 159.17,-122.36"/>
<polygon fill="#63b8ff" stroke="#63b8ff" points="158.14,-125.71 168.72,-125.12 160.08,-118.98 158.14,-125.71"/>
</a>
</g>
</g>
<!-- Node3 -->
<g id="Node000003" class="node">
<title>Node3</title>
<g id="a_Node000003"><a xlink:href="group__mifare__classic__interface__driver.html#gaf7ef5e954bf7e8d025121b4042b9ebc7" target="_top" xlink:title="interface delay ms">
<polygon fill="white" stroke="#666666" points="281,-108 159.25,-108 159.25,-76 281,-76 281,-108"/>
<text xml:space="preserve" text-anchor="start" x="167.25" y="-94.5" font-family="Helvetica,sans-Serif" font-size="10.00">mifare_classic_interface</text>
<text xml:space="preserve" text-anchor="middle" x="220.12" y="-82.5" font-family="Helvetica,sans-Serif" font-size="10.00">_delay_ms</text>
</a>
</g>
</g>
<!-- Node1&#45;&gt;Node3 -->
<g id="edge2_Node000001_Node000003" class="edge">
<title>Node1&#45;&gt;Node3</title>
<g id="a_edge2_Node000001_Node000003"><a xlink:title=" ">
<path fill="none" stroke="#63b8ff" d="M107.66,-77.08C120.42,-78.79 134.26,-80.64 147.71,-82.44"/>
<polygon fill="#63b8ff" stroke="#63b8ff" points="147.01,-85.88 157.38,-83.74 147.94,-78.94 147.01,-85.88"/>
</a>
</g>
</g>
<!-- Node4 -->
<g id="Node000004" class="node">
<title>Node4</title>
<g id="a_Node000004"><a xlink:href="group__mifare__classic__basic__driver.html#ga81ecb971e2e96470255d1ee48930816b" target="_top" xlink:title="mifare request">
<polygon fill="white" stroke="#666666" points="278.38,-58 161.88,-58 161.88,-38 278.38,-38 278.38,-58"/>
<text xml:space="preserve" text-anchor="middle" x="220.12" y="-44.5" font-family="Helvetica,sans-Serif" font-size="10.00">mifare_classic_request</text>
</a>
</g>
</g>
<!-- Node1&#45;&gt;Node4 -->
<g id="edge3_Node000001_Node000004" class="edge">
<title>Node1&#45;&gt;Node4</title>
<g id="a_edge3_Node000001_Node000004"><a xlink:title=" ">
<path fill="none" stroke="#63b8ff" d="M107.66,-62.92C121.22,-61.1 135.99,-59.13 150.22,-57.22"/>
<polygon fill="#63b8ff" stroke="#63b8ff" points="150.53,-60.71 159.98,-55.92 149.6,-53.77 150.53,-60.71"/>
</a>
</g>
</g>
<!-- Node5 -->
<g id="Node000005" class="node">
<title>Node5</title>
<g id="a_Node000005"><a xlink:href="group__mifare__classic__basic__driver.html#ga9c26c4b4c8aacbbe2141d8b41e4e1a86" target="_top" xlink:title="mifare select cl1">
<polygon fill="white" stroke="#666666" points="284.38,-20 155.88,-20 155.88,0 284.38,0 284.38,-20"/>
<text xml:space="preserve" text-anchor="middle" x="220.12" y="-6.5" font-family="Helvetica,sans-Serif" font-size="10.00">mifare_classic_select_cl1</text>
</a>
</g>
</g>
<!-- Node1&#45;&gt;Node5 -->
<g id="edge4_Node000001_Node000005" class="edge">
<title>Node1&#45;&gt;Node5</title>
<g id="a_edge4_Node000001_Node000005"><a xlink:title=" ">
<path fill="none" stroke="#63b8ff" d="M86.61,-53.53C103.25,-45.37 124.13,-35.84 143.5,-29 149.16,-27 155.14,-25.12 161.14,-23.38"/>
<polygon fill="#63b8ff" stroke="#63b8ff" points="161.75,-26.85 170.46,-20.81 159.89,-20.1 161.75,-26.85"/>
</a>
</g>
</g>
</g>
</svg>
