<?xml version="1.0" encoding="UTF-8" standalone="no"?>
<!DOCTYPE svg PUBLIC "-//W3C//DTD SVG 1.1//EN"
 "http://www.w3.org/Graphics/SVG/1.1/DTD/svg11.dtd">
<!-- Generated by graphviz version 13.1.0 (20250701.0955)
 -->
<!-- Title: mifare_classic_basic_value_increment Pages: 1 -->
<svg width="297pt" height="204pt"
 viewBox="0.00 0.00 297.00 204.00" xmlns="http://www.w3.org/2000/svg" xmlns:xlink="http://www.w3.org/1999/xlink">
<g id="graph0" class="graph" transform="scale(1 1) rotate(0) translate(4 200)">
<title>mifare_classic_basic_value_increment</title>
<!-- Node1 -->
<g id="Node000001" class="node">
<title>Node1</title>
<g id="a_Node000001"><a xlink:title="basic example increment value">
<polygon fill="#999999" stroke="#666666" points="107.5,-114 0,-114 0,-82 107.5,-82 107.5,-114"/>
<text xml:space="preserve" text-anchor="start" x="8" y="-100.5" font-family="Helvetica,sans-Serif" font-size="10.00">mifare_classic_basic</text>
<text xml:space="preserve" text-anchor="middle" x="53.75" y="-88.5" font-family="Helvetica,sans-Serif" font-size="10.00">_value_increment</text>
</a>
</g>
</g>
<!-- Node2 -->
<g id="Node000002" class="node">
<title>Node2</title>
<g id="a_Node000002"><a xlink:href="group__mifare__classic__basic__driver.html#ga6b1b466609ca84cb3b8d0b126418f29b" target="_top" xlink:title="mifare authentication">
<polygon fill="white" stroke="#666666" points="288.5,-196 143.5,-196 143.5,-176 288.5,-176 288.5,-196"/>
<text xml:space="preserve" text-anchor="middle" x="216" y="-182.5" font-family="Helvetica,sans-Serif" font-size="10.00">mifare_classic_authentication</text>
</a>
</g>
</g>
<!-- Node1&#45;&gt;Node2 -->
<g id="edge1_Node000001_Node000002" class="edge">
<title>Node1&#45;&gt;Node2</title>
<g id="a_edge1_Node000001_Node000002"><a xlink:title=" ">
<path fill="none" stroke="#63b8ff" d="M71.34,-114.27C88.2,-129.94 115.7,-153.22 143.5,-167 147,-168.74 150.68,-170.33 154.44,-171.78"/>
<polygon fill="#63b8ff" stroke="#63b8ff" points="153.18,-175.05 163.78,-175.04 155.49,-168.44 153.18,-175.05"/>
</a>
</g>
</g>
<!-- Node3 -->
<g id="Node000003" class="node">
<title>Node3</title>
<g id="a_Node000003"><a xlink:href="group__mifare__classic__basic__driver.html#ga49fe2d9684134f603d7f293b8ce7feb4" target="_top" xlink:title="mifare block number to sector number">
<polygon fill="white" stroke="#666666" points="269.75,-158 162.25,-158 162.25,-126 269.75,-126 269.75,-158"/>
<text xml:space="preserve" text-anchor="start" x="170.25" y="-144.5" font-family="Helvetica,sans-Serif" font-size="10.00">mifare_classic_block</text>
<text xml:space="preserve" text-anchor="middle" x="216" y="-132.5" font-family="Helvetica,sans-Serif" font-size="10.00">_to_sector</text>
</a>
</g>
</g>
<!-- Node1&#45;&gt;Node3 -->
<g id="edge2_Node000001_Node000003" class="edge">
<title>Node1&#45;&gt;Node3</title>
<g id="a_edge2_Node000001_Node000003"><a xlink:title=" ">
<path fill="none" stroke="#63b8ff" d="M107.67,-112.53C121.54,-116.34 136.65,-120.49 151.04,-124.44"/>
<polygon fill="#63b8ff" stroke="#63b8ff" points="149.84,-127.74 160.41,-127.01 151.69,-120.99 149.84,-127.74"/>
</a>
</g>
</g>
<!-- Node4 -->
<g id="Node000004" class="node">
<title>Node4</title>
<g id="a_Node000004"><a xlink:href="group__mifare__classic__basic__driver.html#gac2411c8899cea0ea03a82852bdb0bf85" target="_top" xlink:title="mifare increment">
<polygon fill="white" stroke="#666666" points="279.5,-108 152.5,-108 152.5,-88 279.5,-88 279.5,-108"/>
<text xml:space="preserve" text-anchor="middle" x="216" y="-94.5" font-family="Helvetica,sans-Serif" font-size="10.00">mifare_classic_increment</text>
</a>
</g>
</g>
<!-- Node1&#45;&gt;Node4 -->
<g id="edge3_Node000001_Node000004" class="edge">
<title>Node1&#45;&gt;Node4</title>
<g id="a_edge3_Node000001_Node000004"><a xlink:title=" ">
<path fill="none" stroke="#63b8ff" d="M107.67,-98C118.22,-98 129.49,-98 140.61,-98"/>
<polygon fill="#63b8ff" stroke="#63b8ff" points="140.6,-101.5 150.6,-98 140.6,-94.5 140.6,-101.5"/>
</a>
</g>
</g>
<!-- Node5 -->
<g id="Node000005" class="node">
<title>Node5</title>
<g id="a_Node000005"><a xlink:href="group__mifare__classic__basic__driver.html#ga1026b82b3d014c0ddad08be0101d7eb7" target="_top" xlink:title="mifare get the sector&#39;s last block">
<polygon fill="white" stroke="#666666" points="271.62,-70 160.38,-70 160.38,-38 271.62,-38 271.62,-70"/>
<text xml:space="preserve" text-anchor="start" x="168.38" y="-56.5" font-family="Helvetica,sans-Serif" font-size="10.00">mifare_classic_sector</text>
<text xml:space="preserve" text-anchor="middle" x="216" y="-44.5" font-family="Helvetica,sans-Serif" font-size="10.00">_last_block</text>
</a>
</g>
</g>
<!-- Node1&#45;&gt;Node5 -->
<g id="edge4_Node000001_Node000005" class="edge">
<title>Node1&#45;&gt;Node5</title>
<g id="a_edge4_Node000001_Node000005"><a xlink:title=" ">
<path fill="none" stroke="#63b8ff" d="M107.67,-83.47C120.9,-79.84 135.26,-75.89 149.05,-72.11"/>
<polygon fill="#63b8ff" stroke="#63b8ff" points="149.77,-75.54 158.48,-69.52 147.91,-68.79 149.77,-75.54"/>
</a>
</g>
</g>
<!-- Node6 -->
<g id="Node000006" class="node">
<title>Node6</title>
<g id="a_Node000006"><a xlink:href="group__mifare__classic__basic__driver.html#gaaee14a52245164d5a3d47f7f84f23457" target="_top" xlink:title="mifare transfer">
<polygon fill="white" stroke="#666666" points="274.62,-20 157.38,-20 157.38,0 274.62,0 274.62,-20"/>
<text xml:space="preserve" text-anchor="middle" x="216" y="-6.5" font-family="Helvetica,sans-Serif" font-size="10.00">mifare_classic_transfer</text>
</a>
</g>
</g>
<!-- Node1&#45;&gt;Node6 -->
<g id="edge5_Node000001_Node000006" class="edge">
<title>Node1&#45;&gt;Node6</title>
<g id="a_edge5_Node000001_Node000006"><a xlink:title=" ">
<path fill="none" stroke="#63b8ff" d="M71.34,-81.73C88.2,-66.06 115.7,-42.78 143.5,-29 147,-27.26 150.68,-25.67 154.44,-24.22"/>
<polygon fill="#63b8ff" stroke="#63b8ff" points="155.49,-27.56 163.78,-20.96 153.18,-20.95 155.49,-27.56"/>
</a>
</g>
</g>
</g>
</svg>
