<?xml version="1.0" encoding="UTF-8" standalone="no"?>
<!DOCTYPE svg PUBLIC "-//W3C//DTD SVG 1.1//EN"
 "http://www.w3.org/Graphics/SVG/1.1/DTD/svg11.dtd">
<!-- Generated by graphviz version 13.1.0 (20250701.0955)
 -->
<!-- Title: mifare_classic_basic_value_read Pages: 1 -->
<svg width="297pt" height="166pt"
 viewBox="0.00 0.00 297.00 166.00" xmlns="http://www.w3.org/2000/svg" xmlns:xlink="http://www.w3.org/1999/xlink">
<g id="graph0" class="graph" transform="scale(1 1) rotate(0) translate(4 162)">
<title>mifare_classic_basic_value_read</title>
<!-- Node1 -->
<g id="Node000001" class="node">
<title>Node1</title>
<g id="a_Node000001"><a xlink:title="basic example read value">
<polygon fill="#999999" stroke="#666666" points="107.5,-95 0,-95 0,-63 107.5,-63 107.5,-95"/>
<text xml:space="preserve" text-anchor="start" x="8" y="-81.5" font-family="Helvetica,sans-Serif" font-size="10.00">mifare_classic_basic</text>
<text xml:space="preserve" text-anchor="middle" x="53.75" y="-69.5" font-family="Helvetica,sans-Serif" font-size="10.00">_value_read</text>
</a>
</g>
</g>
<!-- Node2 -->
<g id="Node000002" class="node">
<title>Node2</title>
<g id="a_Node000002"><a xlink:href="group__mifare__classic__basic__driver.html#ga6b1b466609ca84cb3b8d0b126418f29b" target="_top" xlink:title="mifare authentication">
<polygon fill="white" stroke="#666666" points="288.5,-158 143.5,-158 143.5,-138 288.5,-138 288.5,-158"/>
<text xml:space="preserve" text-anchor="middle" x="216" y="-144.5" font-family="Helvetica,sans-Serif" font-size="10.00">mifare_classic_authentication</text>
</a>
</g>
</g>
<!-- Node1&#45;&gt;Node2 -->
<g id="edge1_Node000001_Node000002" class="edge">
<title>Node1&#45;&gt;Node2</title>
<g id="a_edge1_Node000001_Node000002"><a xlink:title=" ">
<path fill="none" stroke="#63b8ff" d="M79.9,-95.45C97.22,-106.19 121.06,-119.87 143.5,-129 148.11,-130.87 152.96,-132.62 157.87,-134.22"/>
<polygon fill="#63b8ff" stroke="#63b8ff" points="156.63,-137.5 167.22,-137.08 158.68,-130.81 156.63,-137.5"/>
</a>
</g>
</g>
<!-- Node3 -->
<g id="Node000003" class="node">
<title>Node3</title>
<g id="a_Node000003"><a xlink:href="group__mifare__classic__basic__driver.html#ga49fe2d9684134f603d7f293b8ce7feb4" target="_top" xlink:title="mifare block number to sector number">
<polygon fill="white" stroke="#666666" points="269.75,-120 162.25,-120 162.25,-88 269.75,-88 269.75,-120"/>
<text xml:space="preserve" text-anchor="start" x="170.25" y="-106.5" font-family="Helvetica,sans-Serif" font-size="10.00">mifare_classic_block</text>
<text xml:space="preserve" text-anchor="middle" x="216" y="-94.5" font-family="Helvetica,sans-Serif" font-size="10.00">_to_sector</text>
</a>
</g>
</g>
<!-- Node1&#45;&gt;Node3 -->
<g id="edge2_Node000001_Node000003" class="edge">
<title>Node1&#45;&gt;Node3</title>
<g id="a_edge2_Node000001_Node000003"><a xlink:title=" ">
<path fill="none" stroke="#63b8ff" d="M107.67,-87.26C121.41,-89.4 136.36,-91.73 150.62,-93.96"/>
<polygon fill="#63b8ff" stroke="#63b8ff" points="149.95,-97.39 160.37,-95.48 151.03,-90.48 149.95,-97.39"/>
</a>
</g>
</g>
<!-- Node4 -->
<g id="Node000004" class="node">
<title>Node4</title>
<g id="a_Node000004"><a xlink:href="group__mifare__classic__basic__driver.html#ga1026b82b3d014c0ddad08be0101d7eb7" target="_top" xlink:title="mifare get the sector&#39;s last block">
<polygon fill="white" stroke="#666666" points="271.62,-70 160.38,-70 160.38,-38 271.62,-38 271.62,-70"/>
<text xml:space="preserve" text-anchor="start" x="168.38" y="-56.5" font-family="Helvetica,sans-Serif" font-size="10.00">mifare_classic_sector</text>
<text xml:space="preserve" text-anchor="middle" x="216" y="-44.5" font-family="Helvetica,sans-Serif" font-size="10.00">_last_block</text>
</a>
</g>
</g>
<!-- Node1&#45;&gt;Node4 -->
<g id="edge3_Node000001_Node000004" class="edge">
<title>Node1&#45;&gt;Node4</title>
<g id="a_edge3_Node000001_Node000004"><a xlink:title=" ">
<path fill="none" stroke="#63b8ff" d="M107.67,-70.74C120.77,-68.7 134.98,-66.48 148.64,-64.35"/>
<polygon fill="#63b8ff" stroke="#63b8ff" points="149.11,-67.82 158.45,-62.82 148.03,-60.91 149.11,-67.82"/>
</a>
</g>
</g>
<!-- Node5 -->
<g id="Node000005" class="node">
<title>Node5</title>
<g id="a_Node000005"><a xlink:href="group__mifare__classic__basic__driver.html#gaa8d714374d269e85d852f881aedb4f7a" target="_top" xlink:title="mifare value read">
<polygon fill="white" stroke="#666666" points="281.75,-20 150.25,-20 150.25,0 281.75,0 281.75,-20"/>
<text xml:space="preserve" text-anchor="middle" x="216" y="-6.5" font-family="Helvetica,sans-Serif" font-size="10.00">mifare_classic_value_read</text>
</a>
</g>
</g>
<!-- Node1&#45;&gt;Node5 -->
<g id="edge4_Node000001_Node000005" class="edge">
<title>Node1&#45;&gt;Node5</title>
<g id="a_edge4_Node000001_Node000005"><a xlink:title=" ">
<path fill="none" stroke="#63b8ff" d="M79.9,-62.55C97.22,-51.81 121.06,-38.13 143.5,-29 148.11,-27.13 152.96,-25.38 157.87,-23.78"/>
<polygon fill="#63b8ff" stroke="#63b8ff" points="158.68,-27.19 167.22,-20.92 156.63,-20.5 158.68,-27.19"/>
</a>
</g>
</g>
</g>
</svg>
