<?xml version="1.0" encoding="UTF-8" standalone="no"?>
<!DOCTYPE svg PUBLIC "-//W3C//DTD SVG 1.1//EN"
 "http://www.w3.org/Graphics/SVG/1.1/DTD/svg11.dtd">
<!-- Generated by graphviz version 13.1.0 (20250701.0955)
 -->
<!-- Title: mifare_classic_basic_value_write Pages: 1 -->
<svg width="297pt" height="178pt"
 viewBox="0.00 0.00 297.00 178.00" xmlns="http://www.w3.org/2000/svg" xmlns:xlink="http://www.w3.org/1999/xlink">
<g id="graph0" class="graph" transform="scale(1 1) rotate(0) translate(4 174)">
<title>mifare_classic_basic_value_write</title>
<!-- Node1 -->
<g id="Node000001" class="node">
<title>Node1</title>
<g id="a_Node000001"><a xlink:title="basic example write value">
<polygon fill="#999999" stroke="#666666" points="107.5,-107 0,-107 0,-75 107.5,-75 107.5,-107"/>
<text xml:space="preserve" text-anchor="start" x="8" y="-93.5" font-family="Helvetica,sans-Serif" font-size="10.00">mifare_classic_basic</text>
<text xml:space="preserve" text-anchor="middle" x="53.75" y="-81.5" font-family="Helvetica,sans-Serif" font-size="10.00">_value_write</text>
</a>
</g>
</g>
<!-- Node2 -->
<g id="Node000002" class="node">
<title>Node2</title>
<g id="a_Node000002"><a xlink:href="group__mifare__classic__basic__driver.html#ga6b1b466609ca84cb3b8d0b126418f29b" target="_top" xlink:title="mifare authentication">
<polygon fill="white" stroke="#666666" points="288.5,-170 143.5,-170 143.5,-150 288.5,-150 288.5,-170"/>
<text xml:space="preserve" text-anchor="middle" x="216" y="-156.5" font-family="Helvetica,sans-Serif" font-size="10.00">mifare_classic_authentication</text>
</a>
</g>
</g>
<!-- Node1&#45;&gt;Node2 -->
<g id="edge1_Node000001_Node000002" class="edge">
<title>Node1&#45;&gt;Node2</title>
<g id="a_edge1_Node000001_Node000002"><a xlink:title=" ">
<path fill="none" stroke="#63b8ff" d="M79.9,-107.45C97.22,-118.19 121.06,-131.87 143.5,-141 148.11,-142.87 152.96,-144.62 157.87,-146.22"/>
<polygon fill="#63b8ff" stroke="#63b8ff" points="156.63,-149.5 167.22,-149.08 158.68,-142.81 156.63,-149.5"/>
</a>
</g>
</g>
<!-- Node3 -->
<g id="Node000003" class="node">
<title>Node3</title>
<g id="a_Node000003"><a xlink:href="group__mifare__classic__basic__driver.html#ga49fe2d9684134f603d7f293b8ce7feb4" target="_top" xlink:title="mifare block number to sector number">
<polygon fill="white" stroke="#666666" points="269.75,-132 162.25,-132 162.25,-100 269.75,-100 269.75,-132"/>
<text xml:space="preserve" text-anchor="start" x="170.25" y="-118.5" font-family="Helvetica,sans-Serif" font-size="10.00">mifare_classic_block</text>
<text xml:space="preserve" text-anchor="middle" x="216" y="-106.5" font-family="Helvetica,sans-Serif" font-size="10.00">_to_sector</text>
</a>
</g>
</g>
<!-- Node1&#45;&gt;Node3 -->
<g id="edge2_Node000001_Node000003" class="edge">
<title>Node1&#45;&gt;Node3</title>
<g id="a_edge2_Node000001_Node000003"><a xlink:title=" ">
<path fill="none" stroke="#63b8ff" d="M107.67,-99.26C121.41,-101.4 136.36,-103.73 150.62,-105.96"/>
<polygon fill="#63b8ff" stroke="#63b8ff" points="149.95,-109.39 160.37,-107.48 151.03,-102.48 149.95,-109.39"/>
</a>
</g>
</g>
<!-- Node4 -->
<g id="Node000004" class="node">
<title>Node4</title>
<g id="a_Node000004"><a xlink:href="group__mifare__classic__basic__driver.html#ga1026b82b3d014c0ddad08be0101d7eb7" target="_top" xlink:title="mifare get the sector&#39;s last block">
<polygon fill="white" stroke="#666666" points="271.62,-82 160.38,-82 160.38,-50 271.62,-50 271.62,-82"/>
<text xml:space="preserve" text-anchor="start" x="168.38" y="-68.5" font-family="Helvetica,sans-Serif" font-size="10.00">mifare_classic_sector</text>
<text xml:space="preserve" text-anchor="middle" x="216" y="-56.5" font-family="Helvetica,sans-Serif" font-size="10.00">_last_block</text>
</a>
</g>
</g>
<!-- Node1&#45;&gt;Node4 -->
<g id="edge3_Node000001_Node000004" class="edge">
<title>Node1&#45;&gt;Node4</title>
<g id="a_edge3_Node000001_Node000004"><a xlink:title=" ">
<path fill="none" stroke="#63b8ff" d="M107.67,-82.74C120.77,-80.7 134.98,-78.48 148.64,-76.35"/>
<polygon fill="#63b8ff" stroke="#63b8ff" points="149.11,-79.82 158.45,-74.82 148.03,-72.91 149.11,-79.82"/>
</a>
</g>
</g>
<!-- Node5 -->
<g id="Node000005" class="node">
<title>Node5</title>
<g id="a_Node000005"><a xlink:href="group__mifare__classic__basic__driver.html#ga89aa9f928fe57a82c6d577443fc1fb1a" target="_top" xlink:title="mifare value write">
<polygon fill="white" stroke="#666666" points="269.75,-32 162.25,-32 162.25,0 269.75,0 269.75,-32"/>
<text xml:space="preserve" text-anchor="start" x="170.25" y="-18.5" font-family="Helvetica,sans-Serif" font-size="10.00">mifare_classic_value</text>
<text xml:space="preserve" text-anchor="middle" x="216" y="-6.5" font-family="Helvetica,sans-Serif" font-size="10.00">_write</text>
</a>
</g>
</g>
<!-- Node1&#45;&gt;Node5 -->
<g id="edge4_Node000001_Node000005" class="edge">
<title>Node1&#45;&gt;Node5</title>
<g id="a_edge4_Node000001_Node000005"><a xlink:title=" ">
<path fill="none" stroke="#63b8ff" d="M80.91,-74.64C98.26,-64.2 121.75,-50.84 143.5,-41 146.85,-39.48 150.33,-38 153.86,-36.56"/>
<polygon fill="#63b8ff" stroke="#63b8ff" points="155.1,-39.83 163.14,-32.93 152.56,-33.31 155.1,-39.83"/>
</a>
</g>
</g>
</g>
</svg>
