<?xml version="1.0" encoding="UTF-8" standalone="no"?>
<!DOCTYPE svg PUBLIC "-//W3C//DTD SVG 1.1//EN"
 "http://www.w3.org/Graphics/SVG/1.1/DTD/svg11.dtd">
<!-- Generated by graphviz version 13.1.0 (20250701.0955)
 -->
<!-- Title: mifare classic driver function Pages: 1 -->
<svg width="265pt" height="290pt"
 viewBox="0.00 0.00 265.00 290.00" xmlns="http://www.w3.org/2000/svg" xmlns:xlink="http://www.w3.org/1999/xlink">
<g id="graph0" class="graph" transform="scale(1 1) rotate(0) translate(4 286)">
<title>mifare classic driver function</title>
<!-- Node3 -->
<g id="Node000003" class="node">
<title>Node3</title>
<g id="a_Node000003"><a xlink:href="group__mifare__classic__basic__driver.html" target="_top" xlink:title="mifare classic basic driver modules">
<polygon fill="white" stroke="#666666" points="249.88,-282 146.88,-282 146.88,-250 249.88,-250 249.88,-282"/>
<text xml:space="preserve" text-anchor="start" x="154.88" y="-268.5" font-family="Helvetica,sans-Serif" font-size="10.00">mifare classic basic</text>
<text xml:space="preserve" text-anchor="middle" x="198.38" y="-256.5" font-family="Helvetica,sans-Serif" font-size="10.00"> driver function</text>
</a>
</g>
</g>
<!-- Node1 -->
<g id="Node000001" class="node">
<title>Node1</title>
<g id="a_Node000001"><a xlink:title="mifare classic driver modules">
<polygon fill="#999999" stroke="#666666" points="103.75,-157 0,-157 0,-125 103.75,-125 103.75,-157"/>
<text xml:space="preserve" text-anchor="start" x="8" y="-143.5" font-family="Helvetica,sans-Serif" font-size="10.00">mifare classic driver</text>
<text xml:space="preserve" text-anchor="middle" x="51.88" y="-131.5" font-family="Helvetica,sans-Serif" font-size="10.00"> function</text>
</a>
</g>
</g>
<!-- Node1&#45;&gt;Node3 -->
<g id="edge2" class="edge">
<title>Node1&#45;&gt;Node3</title>
<path fill="none" stroke="black" d="M70.08,-166.6C86.01,-188.7 111.44,-220.25 139.75,-241 144.06,-244.16 148.83,-247.02 153.73,-249.59"/>
<polygon fill="black" stroke="black" points="72.95,-164.59 64.33,-158.42 67.22,-168.61 72.95,-164.59"/>
</g>
<!-- Node6 -->
<g id="Node000006" class="node">
<title>Node6</title>
<g id="a_Node000006"><a xlink:href="group__mifare__classic__example__driver.html" target="_top" xlink:title="mifare classic example driver modules">
<polygon fill="white" stroke="#666666" points="256.62,-232 140.12,-232 140.12,-200 256.62,-200 256.62,-232"/>
<text xml:space="preserve" text-anchor="start" x="148.12" y="-218.5" font-family="Helvetica,sans-Serif" font-size="10.00">mifare classic example</text>
<text xml:space="preserve" text-anchor="middle" x="198.38" y="-206.5" font-family="Helvetica,sans-Serif" font-size="10.00"> driver function</text>
</a>
</g>
</g>
<!-- Node1&#45;&gt;Node6 -->
<g id="edge5" class="edge">
<title>Node1&#45;&gt;Node6</title>
<path fill="none" stroke="black" d="M89.11,-163.07C104.5,-172.13 122.79,-182.47 139.75,-191 145.5,-193.89 151.66,-196.78 157.73,-199.51"/>
<polygon fill="black" stroke="black" points="91.13,-160.21 80.75,-158.11 87.56,-166.23 91.13,-160.21"/>
</g>
<!-- Node4 -->
<g id="Node000004" class="node">
<title>Node4</title>
<g id="a_Node000004"><a xlink:href="group__mifare__classic__extern__driver.html" target="_top" xlink:title="mifare classic extern driver modules">
<polygon fill="white" stroke="#666666" points="251.75,-182 145,-182 145,-150 251.75,-150 251.75,-182"/>
<text xml:space="preserve" text-anchor="start" x="153" y="-168.5" font-family="Helvetica,sans-Serif" font-size="10.00">mifare classic extern</text>
<text xml:space="preserve" text-anchor="middle" x="198.38" y="-156.5" font-family="Helvetica,sans-Serif" font-size="10.00"> driver function</text>
</a>
</g>
</g>
<!-- Node1&#45;&gt;Node4 -->
<g id="edge3" class="edge">
<title>Node1&#45;&gt;Node4</title>
<path fill="none" stroke="black" d="M115.51,-151.84C125.25,-153.52 135.23,-155.25 144.72,-156.89"/>
<polygon fill="black" stroke="black" points="116.17,-148.4 105.72,-150.14 114.98,-155.3 116.17,-148.4"/>
</g>
<!-- Node5 -->
<g id="Node000005" class="node">
<title>Node5</title>
<g id="a_Node000005"><a xlink:href="group__mifare__classic__interface__driver.html" target="_top" xlink:title="mifare classic interface driver modules">
<polygon fill="white" stroke="#666666" points="257,-132 139.75,-132 139.75,-100 257,-100 257,-132"/>
<text xml:space="preserve" text-anchor="start" x="147.75" y="-118.5" font-family="Helvetica,sans-Serif" font-size="10.00">mifare classic interface</text>
<text xml:space="preserve" text-anchor="middle" x="198.38" y="-106.5" font-family="Helvetica,sans-Serif" font-size="10.00"> driver function</text>
</a>
</g>
</g>
<!-- Node1&#45;&gt;Node5 -->
<g id="edge4" class="edge">
<title>Node1&#45;&gt;Node5</title>
<path fill="none" stroke="black" d="M115.33,-130.19C123.29,-128.82 131.41,-127.41 139.3,-126.05"/>
<polygon fill="black" stroke="black" points="114.98,-126.7 105.72,-131.86 116.17,-133.6 114.98,-126.7"/>
</g>
<!-- Node2 -->
<g id="Node000002" class="node">
<title>Node2</title>
<g id="a_Node000002"><a xlink:href="group__mifare__classic__link__driver.html" target="_top" xlink:title="mifare classic link driver modules">
<polygon fill="white" stroke="#666666" points="245.75,-82 151,-82 151,-50 245.75,-50 245.75,-82"/>
<text xml:space="preserve" text-anchor="start" x="159" y="-68.5" font-family="Helvetica,sans-Serif" font-size="10.00">mifare classic link</text>
<text xml:space="preserve" text-anchor="middle" x="198.38" y="-56.5" font-family="Helvetica,sans-Serif" font-size="10.00"> driver function</text>
</a>
</g>
</g>
<!-- Node1&#45;&gt;Node2 -->
<g id="edge1" class="edge">
<title>Node1&#45;&gt;Node2</title>
<path fill="none" stroke="black" d="M89.11,-118.93C104.5,-109.87 122.79,-99.53 139.75,-91 145.5,-88.11 151.66,-85.22 157.73,-82.49"/>
<polygon fill="black" stroke="black" points="87.56,-115.77 80.75,-123.89 91.13,-121.79 87.56,-115.77"/>
</g>
<!-- Node7 -->
<g id="Node000007" class="node">
<title>Node7</title>
<g id="a_Node000007"><a xlink:href="group__mifare__classic__test__driver.html" target="_top" xlink:title="mifare classic test driver modules">
<polygon fill="white" stroke="#666666" points="246.5,-32 150.25,-32 150.25,0 246.5,0 246.5,-32"/>
<text xml:space="preserve" text-anchor="start" x="158.25" y="-18.5" font-family="Helvetica,sans-Serif" font-size="10.00">mifare classic test</text>
<text xml:space="preserve" text-anchor="middle" x="198.38" y="-6.5" font-family="Helvetica,sans-Serif" font-size="10.00"> driver function</text>
</a>
</g>
</g>
<!-- Node1&#45;&gt;Node7 -->
<g id="edge6" class="edge">
<title>Node1&#45;&gt;Node7</title>
<path fill="none" stroke="black" d="M70.08,-115.4C86.01,-93.3 111.44,-61.75 139.75,-41 144.06,-37.84 148.83,-34.98 153.73,-32.41"/>
<polygon fill="black" stroke="black" points="67.22,-113.39 64.33,-123.58 72.95,-117.41 67.22,-113.39"/>
</g>
</g>
</svg>
