<?xml version="1.0" encoding="UTF-8" standalone="no"?>
<!DOCTYPE svg PUBLIC "-//W3C//DTD SVG 1.1//EN"
 "http://www.w3.org/Graphics/SVG/1.1/DTD/svg11.dtd">
<!-- Generated by graphviz version 13.1.0 (20250701.0955)
 -->
<!-- Title: mifare_classic_basic_init Pages: 1 -->
<svg width="294pt" height="278pt"
 viewBox="0.00 0.00 294.00 278.00" xmlns="http://www.w3.org/2000/svg" xmlns:xlink="http://www.w3.org/1999/xlink">
<g id="graph0" class="graph" transform="scale(1 1) rotate(0) translate(4 274)">
<title>mifare_classic_basic_init</title>
<!-- Node1 -->
<g id="Node000001" class="node">
<title>Node1</title>
<g id="a_Node000001"><a xlink:title="basic example init">
<polygon fill="#999999" stroke="#666666" points="125.5,-151 0,-151 0,-131 125.5,-131 125.5,-151"/>
<text xml:space="preserve" text-anchor="middle" x="62.75" y="-137.5" font-family="Helvetica,sans-Serif" font-size="10.00">mifare_classic_basic_init</text>
</a>
</g>
</g>
<!-- Node2 -->
<g id="Node000002" class="node">
<title>Node2</title>
<g id="a_Node000002"><a xlink:href="group__mifare__classic__basic__driver.html#gaf78733953da59b1ac5af594be689e42a" target="_top" xlink:title="initialize the chip">
<polygon fill="white" stroke="#666666" points="272.38,-270 175.38,-270 175.38,-250 272.38,-250 272.38,-270"/>
<text xml:space="preserve" text-anchor="middle" x="223.88" y="-256.5" font-family="Helvetica,sans-Serif" font-size="10.00">mifare_classic_init</text>
</a>
</g>
</g>
<!-- Node1&#45;&gt;Node2 -->
<g id="edge1_Node000001_Node000002" class="edge">
<title>Node1&#45;&gt;Node2</title>
<g id="a_edge1_Node000001_Node000002"><a xlink:title=" ">
<path fill="none" stroke="#63b8ff" d="M71.1,-151.43C85.9,-171.68 121.31,-216.44 161.5,-241 163.92,-242.48 166.45,-243.85 169.07,-245.12"/>
<polygon fill="#63b8ff" stroke="#63b8ff" points="167.47,-248.24 178.04,-248.94 170.21,-241.8 167.47,-248.24"/>
</a>
</g>
</g>
<!-- Node3 -->
<g id="Node000003" class="node">
<title>Node3</title>
<g id="a_Node000003"><a xlink:href="group__mifare__classic__interface__driver.html#ga8d8411a8b6ff26b911e72434ca08e730" target="_top" xlink:title="interface contactless deinit">
<polygon fill="white" stroke="#666666" points="284.75,-232 163,-232 163,-200 284.75,-200 284.75,-232"/>
<text xml:space="preserve" text-anchor="start" x="171" y="-218.5" font-family="Helvetica,sans-Serif" font-size="10.00">mifare_classic_interface</text>
<text xml:space="preserve" text-anchor="middle" x="223.88" y="-206.5" font-family="Helvetica,sans-Serif" font-size="10.00">_contactless_deinit</text>
</a>
</g>
</g>
<!-- Node1&#45;&gt;Node3 -->
<g id="edge2_Node000001_Node000003" class="edge">
<title>Node1&#45;&gt;Node3</title>
<g id="a_edge2_Node000001_Node000003"><a xlink:title=" ">
<path fill="none" stroke="#63b8ff" d="M82.98,-151.46C102.52,-161.94 133.78,-178.29 161.5,-191 164.44,-192.35 167.48,-193.7 170.55,-195.04"/>
<polygon fill="#63b8ff" stroke="#63b8ff" points="169.11,-198.23 179.68,-198.94 171.86,-191.79 169.11,-198.23"/>
</a>
</g>
</g>
<!-- Node4 -->
<g id="Node000004" class="node">
<title>Node4</title>
<g id="a_Node000004"><a xlink:href="group__mifare__classic__interface__driver.html#gafbdc27720a6f09aec51a9e052a7f24e1" target="_top" xlink:title="interface contactless init">
<polygon fill="white" stroke="#666666" points="284.75,-182 163,-182 163,-150 284.75,-150 284.75,-182"/>
<text xml:space="preserve" text-anchor="start" x="171" y="-168.5" font-family="Helvetica,sans-Serif" font-size="10.00">mifare_classic_interface</text>
<text xml:space="preserve" text-anchor="middle" x="223.88" y="-156.5" font-family="Helvetica,sans-Serif" font-size="10.00">_contactless_init</text>
</a>
</g>
</g>
<!-- Node1&#45;&gt;Node4 -->
<g id="edge3_Node000001_Node000004" class="edge">
<title>Node1&#45;&gt;Node4</title>
<g id="a_edge3_Node000001_Node000004"><a xlink:title=" ">
<path fill="none" stroke="#63b8ff" d="M125.73,-150.74C134.16,-152.06 142.87,-153.43 151.46,-154.78"/>
<polygon fill="#63b8ff" stroke="#63b8ff" points="150.72,-158.21 161.14,-156.3 151.8,-151.29 150.72,-158.21"/>
</a>
</g>
</g>
<!-- Node5 -->
<g id="Node000005" class="node">
<title>Node5</title>
<g id="a_Node000005"><a xlink:href="group__mifare__classic__interface__driver.html#ga53fdec5ea3ed5243896a199d3ef1af81" target="_top" xlink:title="interface contactless transceiver">
<polygon fill="white" stroke="#666666" points="286.25,-132 161.5,-132 161.5,-100 286.25,-100 286.25,-132"/>
<text xml:space="preserve" text-anchor="start" x="169.5" y="-118.5" font-family="Helvetica,sans-Serif" font-size="10.00">mifare_classic_interface</text>
<text xml:space="preserve" text-anchor="middle" x="223.88" y="-106.5" font-family="Helvetica,sans-Serif" font-size="10.00">_contactless_transceiver</text>
</a>
</g>
</g>
<!-- Node1&#45;&gt;Node5 -->
<g id="edge4_Node000001_Node000005" class="edge">
<title>Node1&#45;&gt;Node5</title>
<g id="a_edge4_Node000001_Node000005"><a xlink:title=" ">
<path fill="none" stroke="#63b8ff" d="M125.73,-131.26C133.62,-130.02 141.75,-128.75 149.79,-127.48"/>
<polygon fill="#63b8ff" stroke="#63b8ff" points="150.24,-130.96 159.57,-125.95 149.15,-124.04 150.24,-130.96"/>
</a>
</g>
</g>
<!-- Node6 -->
<g id="Node000006" class="node">
<title>Node6</title>
<g id="a_Node000006"><a xlink:href="group__mifare__classic__interface__driver.html#gafca58ea2ee16648070391f048d96d8f7" target="_top" xlink:title="interface print format data">
<polygon fill="white" stroke="#666666" points="284.75,-82 163,-82 163,-50 284.75,-50 284.75,-82"/>
<text xml:space="preserve" text-anchor="start" x="171" y="-68.5" font-family="Helvetica,sans-Serif" font-size="10.00">mifare_classic_interface</text>
<text xml:space="preserve" text-anchor="middle" x="223.88" y="-56.5" font-family="Helvetica,sans-Serif" font-size="10.00">_debug_print</text>
</a>
</g>
</g>
<!-- Node1&#45;&gt;Node6 -->
<g id="edge5_Node000001_Node000006" class="edge">
<title>Node1&#45;&gt;Node6</title>
<g id="a_edge5_Node000001_Node000006"><a xlink:title=" ">
<path fill="none" stroke="#63b8ff" d="M82.98,-130.54C102.52,-120.06 133.78,-103.71 161.5,-91 164.44,-89.65 167.48,-88.3 170.55,-86.96"/>
<polygon fill="#63b8ff" stroke="#63b8ff" points="171.86,-90.21 179.68,-83.06 169.11,-83.77 171.86,-90.21"/>
</a>
</g>
</g>
<!-- Node7 -->
<g id="Node000007" class="node">
<title>Node7</title>
<g id="a_Node000007"><a xlink:href="group__mifare__classic__interface__driver.html#gaf7ef5e954bf7e8d025121b4042b9ebc7" target="_top" xlink:title="interface delay ms">
<polygon fill="white" stroke="#666666" points="284.75,-32 163,-32 163,0 284.75,0 284.75,-32"/>
<text xml:space="preserve" text-anchor="start" x="171" y="-18.5" font-family="Helvetica,sans-Serif" font-size="10.00">mifare_classic_interface</text>
<text xml:space="preserve" text-anchor="middle" x="223.88" y="-6.5" font-family="Helvetica,sans-Serif" font-size="10.00">_delay_ms</text>
</a>
</g>
</g>
<!-- Node1&#45;&gt;Node7 -->
<g id="edge6_Node000001_Node000007" class="edge">
<title>Node1&#45;&gt;Node7</title>
<g id="a_edge6_Node000001_Node000007"><a xlink:title=" ">
<path fill="none" stroke="#63b8ff" d="M71.53,-130.56C86.8,-110.7 122.61,-67.14 161.5,-41 163.11,-39.92 164.77,-38.87 166.47,-37.86"/>
<polygon fill="#63b8ff" stroke="#63b8ff" points="168.08,-40.97 175.23,-33.15 164.76,-34.8 168.08,-40.97"/>
</a>
</g>
</g>
</g>
</svg>
